Coordinates
version=1
nRows=16
nColumns=21
inDegrees=yes

Units are S.I. units (second, meters, Newtons, ...)
If the header above contains a line with 'inDegrees', this indicates whether rotational values are in degrees (yes) or radians (no).

endheader
time	sternoclavicular_r2	sternoclavicular_r3	unrotscap_r3	unrotscap_r2	acromioclavicular_r2	acromioclavicular_r3	acromioclavicular_r1	unrothum_r1	unrothum_r3	unrothum_r2	elv_angle	shoulder_elev	shoulder1_r2	shoulder_rot	elbow_flexion	pro_sup	deviation	flexion	wrist_hand_r1	wrist_hand_r3
      0.00000000	     -0.00540018	      0.00228726	     -0.00228726	      0.00540018	     -0.00109343	      0.00883669	      0.00397203	     -0.00397203	     -0.00883669	      0.00109343	     18.20387480	      0.02231474	    -18.20387480	    -12.09422766	    129.99686413	      0.00000000	      0.00000000	     -0.00000000	     -0.00000000	      0.00000000
      0.10101010	     -0.00547956	      0.00232088	     -0.00232088	      0.00547956	     -0.00110950	      0.00896658	      0.00403042	     -0.00403042	     -0.00896658	      0.00110950	     17.81763653	      0.02264275	    -17.81763653	    -12.09389520	    129.99686413	      0.00000000	      0.00000000	     -0.00000000	     -0.00000000	      0.00000000
      0.20202020	     -0.00555866	      0.00235438	     -0.00235438	      0.00555866	     -0.00112552	      0.00909602	      0.00408860	     -0.00408860	     -0.00909602	      0.00112552	     17.43504128	      0.02296961	    -17.43504128	    -12.09350253	    129.99686380	      0.00000000	      0.00000000	     -0.00000000	     -0.00000000	      0.00000000
      0.30303030	     -0.00563074	      0.00238492	     -0.00238492	      0.00563074	     -0.00114011	      0.00921397	      0.00414162	     -0.00414162	     -0.00921397	      0.00114011	     17.05573507	      0.02326746	    -17.05573507	    -12.09290443	    129.99686218	      0.00000000	      0.00000000	     -0.00000000	     -0.00000000	      0.00000000
      0.40404040	     -0.00568691	      0.00240871	     -0.00240871	      0.00568691	     -0.00115148	      0.00930588	      0.00418293	     -0.00418293	     -0.00930588	      0.00115148	     16.67876975	      0.02349957	    -16.67876975	    -12.09191753	    129.99685804	      0.00000000	      0.00000000	     -0.00000000	     -0.00000000	      0.00000000
      0.50505051	     -0.00571880	      0.00242221	     -0.00242221	      0.00571880	     -0.00115794	      0.00935807	      0.00420639	     -0.00420639	     -0.00935807	      0.00115794	     16.30259202	      0.02363134	    -16.30259202	    -12.09037163	    129.99685021	      0.00000000	      0.00000000	     -0.00000000	     -0.00000000	      0.00000000
      0.60606061	     -0.00571919	      0.00242238	     -0.00242238	      0.00571919	     -0.00115802	      0.00935871	      0.00420668	     -0.00420668	     -0.00935871	      0.00115802	     15.92498444	      0.02363298	    -15.92498444	    -12.08810892	    129.99683754	      0.00000000	      0.00000000	     -0.00000000	     -0.00000000	      0.00000000
      0.70707071	     -0.00568277	      0.00240695	     -0.00240695	      0.00568277	     -0.00115064	      0.00929910	      0.00417988	     -0.00417988	     -0.00929910	      0.00115064	     15.54294271	      0.02348245	    -15.54294271	    -12.08498302	    129.99681889	      0.00000000	      0.00000000	     -0.00000000	     -0.00000000	      0.00000000
      0.80808081	     -0.00560672	      0.00237474	     -0.00237474	      0.00560672	     -0.00113525	      0.00917467	      0.00412395	     -0.00412395	     -0.00917467	      0.00113525	     15.15250576	      0.02316823	    -15.15250576	    -12.08085786	    129.99679310	      0.00000000	      0.00000000	     -0.00000000	     -0.00000000	      0.00000000
      0.90909091	     -0.00549123	      0.00232583	     -0.00232583	      0.00549123	     -0.00111186	      0.00898568	      0.00403900	     -0.00403900	     -0.00898568	      0.00111186	     14.74860088	      0.02269098	    -14.74860088	    -12.07560600	    129.99675891	      0.00000000	      0.00000000	     -0.00000000	     -0.00000000	      0.00000000
      1.01010101	     -0.00533940	      0.00226152	     -0.00226152	      0.00533940	     -0.00108112	      0.00873723	      0.00392732	     -0.00392732	     -0.00873723	      0.00108112	     14.32499915	      0.02206357	    -14.32499915	    -12.06910637	    129.99671495	      0.00000000	      0.00000000	     -0.00000000	     -0.00000000	      0.00000000
      1.11111111	     -0.00515686	      0.00218420	     -0.00218420	      0.00515686	     -0.00104416	      0.00843853	      0.00379306	     -0.00379306	     -0.00843853	      0.00104416	     13.87444445	      0.02130929	    -13.87444445	    -12.06124214	    129.99665963	      0.00000000	      0.00000000	     -0.00000000	     -0.00000000	      0.00000000
      1.21212121	     -0.00495101	      0.00209702	     -0.00209702	      0.00495101	     -0.00100248	      0.00810169	      0.00364165	     -0.00364165	     -0.00810169	      0.00100248	     13.38889358	      0.02045869	    -13.38889358	    -12.05190027	    129.99659109	      0.00000000	      0.00000000	     -0.00000000	     -0.00000000	      0.00000000
      1.31313131	     -0.00473014	      0.00200347	     -0.00200347	      0.00473014	     -0.00095776	      0.00774026	      0.00347919	     -0.00347919	     -0.00774026	      0.00095776	     12.85964382	      0.01954601	    -12.85964382	    -12.04097418	    129.99650707	      0.00000000	      0.00000000	     -0.00000000	     -0.00000000	      0.00000000
      1.41414141	     -0.00450269	      0.00190713	     -0.00190713	      0.00450269	     -0.00091170	      0.00736807	      0.00331190	     -0.00331190	     -0.00736807	      0.00091170	     12.27705361	      0.01860613	    -12.27705361	    -12.02836892	    129.99640480	      0.00000000	      0.00000000	     -0.00000000	     -0.00000000	      0.00000000
      1.51515152	     -0.00427677	      0.00181144	     -0.00181144	      0.00427677	     -0.00086596	      0.00699837	      0.00314572	     -0.00314572	     -0.00699837	      0.00086596	     11.62962535	      0.01767255	    -11.62962535	    -12.01400653	    129.99628071	      0.00000000	      0.00000000	     -0.00000000	     -0.00000000	      0.00000000
